<svg xmlns="http://www.w3.org/2000/svg" xmlns:xlink="http://www.w3.org/1999/xlink" contentStyleType="text/css" data-diagram-type="SEQUENCE" height="1088px" preserveAspectRatio="none" style="width:1219px;height:1088px;background:#1B1B1B;" version="1.1" viewBox="0 0 1219 1088" width="1219px" zoomAndPan="magnify"><title>Schematic representation of the dialogue construction and operation principle</title><defs/><g><rect fill="#1B1B1B" height="1088" style="stroke:none;stroke-width:1;" width="1219" x="0" y="0"/><rect fill="#222222" height="1026.2266" style="stroke:#E7E7E7;stroke-width:0.5;" width="651.2744" x="242.0859" y="55.9375"/><text fill="#FFFFFF" font-family="sans-serif" font-size="13" font-weight="bold" lengthAdjust="spacing" textLength="140.3022" x="497.572" y="68.0044">Telegram-bot (Bot)</text><rect fill="#222222" height="1006.0938" style="stroke:#E7E7E7;stroke-width:0.5;" width="651.2744" x="242.0859" y="76.0703"/><text fill="#FFFFFF" font-family="sans-serif" font-size="13" font-weight="bold" lengthAdjust="spacing" textLength="337.8032" x="398.8215" y="88.1372">based on Telegram-Bot-Discussion framework</text><text fill="#777777" font-family="sans-serif" font-size="10" lengthAdjust="spacing" textLength="247.4414" x="964.4854" y="14.2822">Explanation of Telegram-Bot-Discussion Dialogue</text><text fill="#FFFFFF" font-family="sans-serif" font-size="14" font-weight="bold" lengthAdjust="spacing" textLength="622.7813" x="297.0728" y="40.6357">Schematic representation of the dialogue construction and operation principle</text><g><title>Telegram-user</title><rect fill="#000000" fill-opacity="0.00000" height="786.5859" width="8" x="55.5576" y="192.3906"/><line style="stroke:#E7E7E7;stroke-width:0.5;stroke-dasharray:5,5;" x1="59.0576" x2="59.0576" y1="192.3906" y2="978.9766"/></g><g><title>Messages handler</title><rect fill="#000000" fill-opacity="0.00000" height="786.5859" width="8" x="308.873" y="192.3906"/><line style="stroke:#E7E7E7;stroke-width:0.5;stroke-dasharray:5,5;" x1="312.373" x2="312.373" y1="192.3906" y2="978.9766"/></g><g><title>Dialogue as sequence of yielded Replicas</title><rect fill="#000000" fill-opacity="0.00000" height="786.5859" width="8" x="540.5605" y="192.3906"/><line style="stroke:#E7E7E7;stroke-width:0.5;stroke-dasharray:5,5;" x1="544.0605" x2="544.0605" y1="192.3906" y2="978.9766"/></g><g><title>Active dialogues registry</title><rect fill="#000000" fill-opacity="0.00000" height="786.5859" width="8" x="795.9106" y="192.3906"/><line style="stroke:#E7E7E7;stroke-width:0.5;stroke-dasharray:5,5;" x1="799.4106" x2="799.4106" y1="192.3906" y2="978.9766"/></g><g><title/><rect fill="#555555" height="132.0977" style="stroke:#E7E7E7;stroke-width:1;" width="10" x="794.4106" y="330.0547"/></g><g><title/><rect fill="#555555" height="132.0977" style="stroke:#E7E7E7;stroke-width:1;" width="10" x="794.4106" y="491.2852"/></g><g><title/><rect fill="#555555" height="132.0977" style="stroke:#E7E7E7;stroke-width:1;" width="10" x="794.4106" y="720.3477"/></g><text fill="#FFFFFF" font-family="sans-serif" font-size="14" lengthAdjust="spacing" textLength="102.1152" x="5" y="172.792">Telegram-user</text><text fill="#FFFFFF" font-family="sans-serif" font-size="14" lengthAdjust="spacing" textLength="42.834" x="34.6406" y="189.0889">(User)</text><ellipse cx="59.0576" cy="108.2969" fill="#FFFFFF" rx="8" ry="8" style="stroke:#E7E7E7;stroke-width:0.5;"/><path d="M59.0576,116.2969 L59.0576,143.2969 M46.0576,124.2969 L72.0576,124.2969 M59.0576,143.2969 L46.0576,158.2969 M59.0576,143.2969 L72.0576,158.2969" fill="none" style="stroke:#E7E7E7;stroke-width:0.5;"/><text fill="#FFFFFF" font-family="sans-serif" font-size="14" lengthAdjust="spacing" textLength="126.5742" x="246.0859" y="140.1982">Messages handler</text><text fill="#FFFFFF" font-family="sans-serif" font-size="14" lengthAdjust="spacing" textLength="107.8848" x="255.4307" y="156.4951">- command call</text><text fill="#FFFFFF" font-family="sans-serif" font-size="14" lengthAdjust="spacing" textLength="91.4102" x="263.668" y="172.792">- button click</text><text fill="#FFFFFF" font-family="sans-serif" font-size="14" lengthAdjust="spacing" textLength="114.167" x="252.2896" y="189.0889">- other message</text><path d="M291.873,99.2031 L291.873,123.2031 M291.873,111.2031 L308.873,111.2031" fill="none" style="stroke:#E7E7E7;stroke-width:0.5;"/><ellipse cx="320.873" cy="111.2031" fill="#555555" rx="12" ry="12" style="stroke:#E7E7E7;stroke-width:0.5;"/><path d="M393.6602,166.0938 L694.4609,166.0938 C699.4609,166.0938 699.4609,179.2422 699.4609,179.2422 C699.4609,179.2422 699.4609,192.3906 694.4609,192.3906 L393.6602,192.3906 C388.6602,192.3906 388.6602,179.2422 388.6602,179.2422 C388.6602,179.2422 388.6602,166.0938 393.6602,166.0938" fill="#A15656" style="stroke:#E7E7E7;stroke-width:0.5;"/><path d="M694.4609,166.0938 C689.4609,166.0938 689.4609,179.2422 689.4609,179.2422 C689.4609,192.3906 694.4609,192.3906 694.4609,192.3906" fill="none" style="stroke:#E7E7E7;stroke-width:0.5;"/><text fill="#FFFFFF" font-family="sans-serif" font-size="14" lengthAdjust="spacing" textLength="290.8008" x="393.6602" y="184.0889">Dialogue as sequence of yielded Replicas</text><text fill="#FFFFFF" font-family="sans-serif" font-size="14" lengthAdjust="spacing" textLength="173.8994" x="709.4609" y="189.0889">Active dialogues registry</text><path d="M781.4106,140.0938 C781.4106,130.0938 799.4106,130.0938 799.4106,130.0938 C799.4106,130.0938 817.4106,130.0938 817.4106,140.0938 L817.4106,166.0938 C817.4106,176.0938 799.4106,176.0938 799.4106,176.0938 C799.4106,176.0938 781.4106,176.0938 781.4106,166.0938 L781.4106,140.0938" fill="#555555" style="stroke:#E7E7E7;stroke-width:0.5;"/><path d="M781.4106,140.0938 C781.4106,150.0938 799.4106,150.0938 799.4106,150.0938 C799.4106,150.0938 817.4106,150.0938 817.4106,140.0938" fill="none" style="stroke:#E7E7E7;stroke-width:0.5;"/><text fill="#FFFFFF" font-family="sans-serif" font-size="14" lengthAdjust="spacing" textLength="102.1152" x="5" y="1051.9717">Telegram-user</text><text fill="#FFFFFF" font-family="sans-serif" font-size="14" lengthAdjust="spacing" textLength="42.834" x="34.6406" y="1068.2686">(User)</text><ellipse cx="59.0576" cy="987.4766" fill="#FFFFFF" rx="8" ry="8" style="stroke:#E7E7E7;stroke-width:0.5;"/><path d="M59.0576,995.4766 L59.0576,1022.4766 M46.0576,1003.4766 L72.0576,1003.4766 M59.0576,1022.4766 L46.0576,1037.4766 M59.0576,1022.4766 L72.0576,1037.4766" fill="none" style="stroke:#E7E7E7;stroke-width:0.5;"/><text fill="#FFFFFF" font-family="sans-serif" font-size="14" lengthAdjust="spacing" textLength="126.5742" x="246.0859" y="1023.9717">Messages handler</text><text fill="#FFFFFF" font-family="sans-serif" font-size="14" lengthAdjust="spacing" textLength="107.8848" x="255.4307" y="1040.2686">- command call</text><text fill="#FFFFFF" font-family="sans-serif" font-size="14" lengthAdjust="spacing" textLength="91.4102" x="263.668" y="1056.5654">- button click</text><text fill="#FFFFFF" font-family="sans-serif" font-size="14" lengthAdjust="spacing" textLength="114.167" x="252.2896" y="1072.8623">- other message</text><path d="M291.873,982.9766 L291.873,1006.9766 M291.873,994.9766 L308.873,994.9766" fill="none" style="stroke:#E7E7E7;stroke-width:0.5;"/><ellipse cx="320.873" cy="994.9766" fill="#555555" rx="12" ry="12" style="stroke:#E7E7E7;stroke-width:0.5;"/><path d="M393.6602,978.9766 L694.4609,978.9766 C699.4609,978.9766 699.4609,992.125 699.4609,992.125 C699.4609,992.125 699.4609,1005.2734 694.4609,1005.2734 L393.6602,1005.2734 C388.6602,1005.2734 388.6602,992.125 388.6602,992.125 C388.6602,992.125 388.6602,978.9766 393.6602,978.9766" fill="#A15656" style="stroke:#E7E7E7;stroke-width:0.5;"/><path d="M694.4609,978.9766 C689.4609,978.9766 689.4609,992.125 689.4609,992.125 C689.4609,1005.2734 694.4609,1005.2734 694.4609,1005.2734" fill="none" style="stroke:#E7E7E7;stroke-width:0.5;"/><text fill="#FFFFFF" font-family="sans-serif" font-size="14" lengthAdjust="spacing" textLength="290.8008" x="393.6602" y="996.9717">Dialogue as sequence of yielded Replicas</text><text fill="#FFFFFF" font-family="sans-serif" font-size="14" lengthAdjust="spacing" textLength="173.8994" x="709.4609" y="1037.9717">Active dialogues registry</text><path d="M781.4106,988.9766 C781.4106,978.9766 799.4106,978.9766 799.4106,978.9766 C799.4106,978.9766 817.4106,978.9766 817.4106,988.9766 L817.4106,1014.9766 C817.4106,1024.9766 799.4106,1024.9766 799.4106,1024.9766 C799.4106,1024.9766 781.4106,1024.9766 781.4106,1014.9766 L781.4106,988.9766" fill="#555555" style="stroke:#E7E7E7;stroke-width:0.5;"/><path d="M781.4106,988.9766 C781.4106,998.9766 799.4106,998.9766 799.4106,998.9766 C799.4106,998.9766 817.4106,998.9766 817.4106,988.9766" fill="none" style="stroke:#E7E7E7;stroke-width:0.5;"/><polygon fill="#E7E7E7" points="300.373,217.5234,310.373,221.5234,300.373,225.5234,304.373,221.5234" style="stroke:#E7E7E7;stroke-width:1;"/><line style="stroke:#E7E7E7;stroke-width:1;" x1="59.0576" x2="306.373" y1="221.5234" y2="221.5234"/><text fill="#FFFFFF" font-family="sans-serif" font-size="13" lengthAdjust="spacing" textLength="148.7446" x="66.0576" y="216.4575">An initial User request.</text><polygon fill="#E7E7E7" points="532.0605,246.6563,542.0605,250.6563,532.0605,254.6563,536.0605,250.6563" style="stroke:#E7E7E7;stroke-width:1;"/><line style="stroke:#E7E7E7;stroke-width:1;" x1="312.373" x2="538.0605" y1="250.6563" y2="250.6563"/><text fill="#FFFFFF" font-family="sans-serif" font-size="13" lengthAdjust="spacing" textLength="93.5327" x="319.373" y="245.5903">Start Dialogue</text><path d="M549.0605,234.5234 L549.0605,259.5234 L802.0605,259.5234 L802.0605,244.5234 L792.0605,234.5234 L549.0605,234.5234" fill="#A15656" style="stroke:#E7E7E7;stroke-width:0.5;"/><path d="M792.0605,234.5234 L792.0605,244.5234 L802.0605,244.5234 L792.0605,234.5234" fill="#A15656" style="stroke:#E7E7E7;stroke-width:0.5;"/><text fill="#FFFFFF" font-family="sans-serif" font-size="13" lengthAdjust="spacing" textLength="232.832" x="555.0605" y="251.5903">... init iterator over yielded Replicas</text><polygon fill="#E7E7E7" points="782.4106,296.9219,792.4106,300.9219,782.4106,304.9219,786.4106,300.9219" style="stroke:#E7E7E7;stroke-width:1;"/><line style="stroke:#E7E7E7;stroke-width:1;" x1="312.373" x2="788.4106" y1="300.9219" y2="300.9219"/><text fill="#FFFFFF" font-family="sans-serif" font-size="13" lengthAdjust="spacing" textLength="162.8872" x="319.373" y="280.7231">and put its yield-function</text><text fill="#FFFFFF" font-family="sans-serif" font-size="13" lengthAdjust="spacing" textLength="334.1533" x="319.373" y="295.856">in dialogues registry and get first Dialogue Replica.</text><path d="M804.4106,317.4883 L804.4106,342.4883 L949.4106,342.4883 L949.4106,327.4883 L939.4106,317.4883 L804.4106,317.4883" fill="#A15656" style="stroke:#E7E7E7;stroke-width:0.5;"/><path d="M939.4106,317.4883 L939.4106,327.4883 L949.4106,327.4883 L939.4106,317.4883" fill="#A15656" style="stroke:#E7E7E7;stroke-width:0.5;"/><text fill="#FFFFFF" font-family="sans-serif" font-size="13" lengthAdjust="spacing" textLength="124.4331" x="810.4106" y="334.5552">... yield Replica "A"</text><polygon fill="#E7E7E7" points="323.373,326.0547,313.373,330.0547,323.373,334.0547,319.373,330.0547" style="stroke:#E7E7E7;stroke-width:1;"/><line style="stroke:#E7E7E7;stroke-width:1;" x1="317.373" x2="793.4106" y1="330.0547" y2="330.0547"/><text fill="#FFFFFF" font-family="sans-serif" font-size="13" lengthAdjust="spacing" textLength="173.8115" x="329.373" y="324.9888">Dialogue yield Replica "A".</text><path d="M804.4106,352.6211 L804.4106,377.6211 L1045.4106,377.6211 L1045.4106,362.6211 L1035.4106,352.6211 L804.4106,352.6211" fill="#555555" style="stroke:#E7E7E7;stroke-width:0.5;"/><path d="M1035.4106,352.6211 L1035.4106,362.6211 L1045.4106,362.6211 L1035.4106,352.6211" fill="#555555" style="stroke:#E7E7E7;stroke-width:0.5;"/><text fill="#FFFFFF" font-family="sans-serif" font-size="13" lengthAdjust="spacing" textLength="220.6763" x="810.4106" y="369.688">Wait User response to Replica "A"</text><polygon fill="#E7E7E7" points="70.0576,399.8867,60.0576,403.8867,70.0576,407.8867,66.0576,403.8867" style="stroke:#E7E7E7;stroke-width:1;"/><line style="stroke:#E7E7E7;stroke-width:1;" x1="64.0576" x2="311.373" y1="403.8867" y2="403.8867"/><text fill="#FFFFFF" font-family="sans-serif" font-size="13" lengthAdjust="spacing" textLength="222.5298" x="76.0576" y="398.8208">Bot reply to User with Replica "A".</text><polygon fill="#E7E7E7" points="300.373,429.0195,310.373,433.0195,300.373,437.0195,304.373,433.0195" style="stroke:#E7E7E7;stroke-width:1;"/><line style="stroke:#E7E7E7;stroke-width:1;" x1="59.0576" x2="306.373" y1="433.0195" y2="433.0195"/><text fill="#FFFFFF" font-family="sans-serif" font-size="13" lengthAdjust="spacing" textLength="212.4116" x="66.0576" y="427.9536">An User response to Replica "A".</text><polygon fill="#E7E7E7" points="787.4106,458.1523,797.4106,462.1523,787.4106,466.1523,791.4106,462.1523" style="stroke:#E7E7E7;stroke-width:1;"/><line style="stroke:#E7E7E7;stroke-width:1;" x1="312.373" x2="793.4106" y1="462.1523" y2="462.1523"/><text fill="#FFFFFF" font-family="sans-serif" font-size="13" lengthAdjust="spacing" textLength="370.2207" x="319.373" y="457.0864">Fetch User response to Replica "A" and get next Replica.</text><path d="M804.4106,478.7188 L804.4106,503.7188 L949.4106,503.7188 L949.4106,488.7188 L939.4106,478.7188 L804.4106,478.7188" fill="#A15656" style="stroke:#E7E7E7;stroke-width:0.5;"/><path d="M939.4106,478.7188 L939.4106,488.7188 L949.4106,488.7188 L939.4106,478.7188" fill="#A15656" style="stroke:#E7E7E7;stroke-width:0.5;"/><text fill="#FFFFFF" font-family="sans-serif" font-size="13" lengthAdjust="spacing" textLength="124.4585" x="810.4106" y="495.7856">... yield Replica "B"</text><polygon fill="#E7E7E7" points="323.373,487.2852,313.373,491.2852,323.373,495.2852,319.373,491.2852" style="stroke:#E7E7E7;stroke-width:1;"/><line style="stroke:#E7E7E7;stroke-width:1;" x1="317.373" x2="793.4106" y1="491.2852" y2="491.2852"/><text fill="#FFFFFF" font-family="sans-serif" font-size="13" lengthAdjust="spacing" textLength="173.8369" x="329.373" y="486.2192">Dialogue yield Replica "B".</text><path d="M804.4106,513.8516 L804.4106,538.8516 L1045.4106,538.8516 L1045.4106,523.8516 L1035.4106,513.8516 L804.4106,513.8516" fill="#555555" style="stroke:#E7E7E7;stroke-width:0.5;"/><path d="M1035.4106,513.8516 L1035.4106,523.8516 L1045.4106,523.8516 L1035.4106,513.8516" fill="#555555" style="stroke:#E7E7E7;stroke-width:0.5;"/><text fill="#FFFFFF" font-family="sans-serif" font-size="13" lengthAdjust="spacing" textLength="220.7017" x="810.4106" y="530.9185">Wait User response to Replica "B"</text><polygon fill="#E7E7E7" points="70.0576,561.1172,60.0576,565.1172,70.0576,569.1172,66.0576,565.1172" style="stroke:#E7E7E7;stroke-width:1;"/><line style="stroke:#E7E7E7;stroke-width:1;" x1="64.0576" x2="311.373" y1="565.1172" y2="565.1172"/><text fill="#FFFFFF" font-family="sans-serif" font-size="13" lengthAdjust="spacing" textLength="222.5552" x="76.0576" y="560.0513">Bot reply to User with Replica "B".</text><polygon fill="#E7E7E7" points="300.373,590.25,310.373,594.25,300.373,598.25,304.373,594.25" style="stroke:#E7E7E7;stroke-width:1;"/><line style="stroke:#E7E7E7;stroke-width:1;" x1="59.0576" x2="306.373" y1="594.25" y2="594.25"/><text fill="#FFFFFF" font-family="sans-serif" font-size="13" lengthAdjust="spacing" textLength="212.437" x="66.0576" y="589.1841">An User response to Replica "B".</text><polygon fill="#E7E7E7" points="782.4106,619.3828,792.4106,623.3828,782.4106,627.3828,786.4106,623.3828" style="stroke:#E7E7E7;stroke-width:1;"/><line style="stroke:#E7E7E7;stroke-width:1;" x1="312.373" x2="788.4106" y1="623.3828" y2="623.3828"/><text fill="#FFFFFF" font-family="sans-serif" font-size="13" lengthAdjust="spacing" textLength="370.2461" x="319.373" y="618.3169">Fetch User response to Replica "B" and get next Replica.</text><path d="M804.4106,639.9492 L804.4106,664.9492 L1207.4106,664.9492 L1207.4106,649.9492 L1197.4106,639.9492 L804.4106,639.9492" fill="#A15656" style="stroke:#E7E7E7;stroke-width:0.5;"/><path d="M1197.4106,639.9492 L1197.4106,649.9492 L1207.4106,649.9492 L1197.4106,639.9492" fill="#A15656" style="stroke:#E7E7E7;stroke-width:0.5;"/><text fill="#FFFFFF" font-family="sans-serif" font-size="13" lengthAdjust="spacing" textLength="382.5161" x="810.4106" y="657.0161">... yield special NoNeedReaction-Replica (over Replica "&#1057;")</text><polygon fill="#E7E7E7" points="323.373,648.5156,313.373,652.5156,323.373,656.5156,319.373,652.5156" style="stroke:#E7E7E7;stroke-width:1;"/><line style="stroke:#E7E7E7;stroke-width:1;" x1="317.373" x2="798.4106" y1="652.5156" y2="652.5156"/><text fill="#FFFFFF" font-family="sans-serif" font-size="13" lengthAdjust="spacing" textLength="431.8945" x="329.373" y="647.4497">Dialogue yield special NoNeedReaction-Replica (over Replica "&#1057;").</text><polygon fill="#E7E7E7" points="70.0576,687.2148,60.0576,691.2148,70.0576,695.2148,66.0576,691.2148" style="stroke:#E7E7E7;stroke-width:1;"/><line style="stroke:#E7E7E7;stroke-width:1;" x1="64.0576" x2="311.373" y1="691.2148" y2="691.2148"/><text fill="#FFFFFF" font-family="sans-serif" font-size="13" lengthAdjust="spacing" textLength="222.7139" x="76.0576" y="686.1489">Bot reply to User with Replica "&#1057;".</text><path d="M804.4106,707.7813 L804.4106,732.7813 L950.4106,732.7813 L950.4106,717.7813 L940.4106,707.7813 L804.4106,707.7813" fill="#A15656" style="stroke:#E7E7E7;stroke-width:0.5;"/><path d="M940.4106,707.7813 L940.4106,717.7813 L950.4106,717.7813 L940.4106,707.7813" fill="#A15656" style="stroke:#E7E7E7;stroke-width:0.5;"/><text fill="#FFFFFF" font-family="sans-serif" font-size="13" lengthAdjust="spacing" textLength="125.5503" x="810.4106" y="724.8481">... yield Replica "D"</text><polygon fill="#E7E7E7" points="323.373,716.3477,313.373,720.3477,323.373,724.3477,319.373,720.3477" style="stroke:#E7E7E7;stroke-width:1;"/><line style="stroke:#E7E7E7;stroke-width:1;" x1="317.373" x2="793.4106" y1="720.3477" y2="720.3477"/><text fill="#FFFFFF" font-family="sans-serif" font-size="13" lengthAdjust="spacing" textLength="174.9287" x="329.373" y="715.2817">Dialogue yield Replica "D".</text><path d="M804.4106,742.9141 L804.4106,767.9141 L1046.4106,767.9141 L1046.4106,752.9141 L1036.4106,742.9141 L804.4106,742.9141" fill="#555555" style="stroke:#E7E7E7;stroke-width:0.5;"/><path d="M1036.4106,742.9141 L1036.4106,752.9141 L1046.4106,752.9141 L1036.4106,742.9141" fill="#555555" style="stroke:#E7E7E7;stroke-width:0.5;"/><text fill="#FFFFFF" font-family="sans-serif" font-size="13" lengthAdjust="spacing" textLength="221.7935" x="810.4106" y="759.981">Wait User response to Replica "D"</text><polygon fill="#E7E7E7" points="70.0576,790.1797,60.0576,794.1797,70.0576,798.1797,66.0576,794.1797" style="stroke:#E7E7E7;stroke-width:1;"/><line style="stroke:#E7E7E7;stroke-width:1;" x1="64.0576" x2="311.373" y1="794.1797" y2="794.1797"/><text fill="#FFFFFF" font-family="sans-serif" font-size="13" lengthAdjust="spacing" textLength="223.647" x="76.0576" y="789.1138">Bot reply to User with Replica "D".</text><polygon fill="#E7E7E7" points="300.373,819.3125,310.373,823.3125,300.373,827.3125,304.373,823.3125" style="stroke:#E7E7E7;stroke-width:1;"/><line style="stroke:#E7E7E7;stroke-width:1;" x1="59.0576" x2="306.373" y1="823.3125" y2="823.3125"/><text fill="#FFFFFF" font-family="sans-serif" font-size="13" lengthAdjust="spacing" textLength="213.5288" x="66.0576" y="818.2466">An User response to Replica "D".</text><polygon fill="#E7E7E7" points="782.4106,848.4453,792.4106,852.4453,782.4106,856.4453,786.4106,852.4453" style="stroke:#E7E7E7;stroke-width:1;"/><line style="stroke:#E7E7E7;stroke-width:1;" x1="312.373" x2="788.4106" y1="852.4453" y2="852.4453"/><text fill="#FFFFFF" font-family="sans-serif" font-size="13" lengthAdjust="spacing" textLength="371.3379" x="319.373" y="847.3794">Fetch User response to Replica "D" and get next Replica.</text><polygon fill="#E7E7E7" points="323.373,877.5781,313.373,881.5781,323.373,885.5781,319.373,881.5781" style="stroke:#E7E7E7;stroke-width:1;"/><line style="stroke:#E7E7E7;stroke-width:1;" x1="317.373" x2="798.4106" y1="881.5781" y2="881.5781"/><text fill="#FFFFFF" font-family="sans-serif" font-size="13" lengthAdjust="spacing" textLength="359.3535" x="329.373" y="876.5122">Dialogue yield special Stop-Replica (over Last-Replica).</text><path d="M804.4106,865.4453 L804.4106,890.4453 L1134.4106,890.4453 L1134.4106,875.4453 L1124.4106,865.4453 L804.4106,865.4453" fill="#A15656" style="stroke:#E7E7E7;stroke-width:0.5;"/><path d="M1124.4106,865.4453 L1124.4106,875.4453 L1134.4106,875.4453 L1124.4106,865.4453" fill="#A15656" style="stroke:#E7E7E7;stroke-width:0.5;"/><text fill="#FFFFFF" font-family="sans-serif" font-size="13" lengthAdjust="spacing" textLength="309.4165" x="810.4106" y="882.5122">... yield special Stop Replica (over Last-Replica)</text><polygon fill="#E7E7E7" points="787.4106,927.8438,797.4106,931.8438,787.4106,935.8438,791.4106,931.8438" style="stroke:#E7E7E7;stroke-width:1;"/><line style="stroke:#E7E7E7;stroke-width:1;" x1="312.373" x2="793.4106" y1="931.8438" y2="931.8438"/><text fill="#FFFFFF" font-family="sans-serif" font-size="13" lengthAdjust="spacing" textLength="246.6255" x="319.373" y="911.645">Stop dialogue as delete yield-function</text><text fill="#FFFFFF" font-family="sans-serif" font-size="13" lengthAdjust="spacing" textLength="155.708" x="319.373" y="926.7778">from dialogues registry.</text><polygon fill="#E7E7E7" points="70.0576,956.9766,60.0576,960.9766,70.0576,964.9766,66.0576,960.9766" style="stroke:#E7E7E7;stroke-width:1;"/><line style="stroke:#E7E7E7;stroke-width:1;" x1="64.0576" x2="311.373" y1="960.9766" y2="960.9766"/><text fill="#FFFFFF" font-family="sans-serif" font-size="13" lengthAdjust="spacing" textLength="229.3154" x="76.0576" y="955.9106">Bot reply to User with Last-Replica.</text><!--SRC=[lLPDRvmm4BtpAwP4ghA7HUfXSyYXKX1TzT3caBJgfHSl3605R6eFIRR_fl-eFwbZasNPpoHBL5_uiEVDctaFctUD4KKjW53_1Z8j1YMA30ryUcmgeGH9hK3dy0qhB8oefx6cQI9jsbhhfX8fAbrmM42IAeJmDYsnvh0K33O6BIhgGQX4o9u28DNASiBKJmgLWMxGT4iR8rKgcmh3810fQGDXdx-rQ7wgy-zycOGWBBWxE9lFvq6mq8-3bGjDSCvq9s40FFpaGbZaJEfWFJc_mmTjxhgWBh1LcJ1BTnz-HMj5WHPAfbmvAbEkfAvT0QceAlUyQ8aOAgraUkUUDTTjeEuYFUVFNJ2SpMQpFi-l5hajtGXNVNMhBVAKIj6rS2cnohY46smONbWFroy-4nzc5xEBFEz1Cq725Ur1hxZPzsi9B4jKI1PXkO5YrxIGg-A-1Qjh4FXkFutfH-WhSUCIhXH89Oc1EbcCOsuf2eRBN5ZFs8VTaZ2qjfBIX61aKT96GL4KUNIGv8p2hj3t3BdT4K_MGHnCQdrIfrZJEZJROKppLdat_bHIxMcIZoYG89V6hkck4aVSdGo5Qx5W_dsoOJaiuA3BMxLv4Yiq5YjSL_9-I7stxJsL7OZeSFPEun-26_gabMtuaqGWlPz4i5jRXxBTvw57Be4_CBSLL4i7xASU99MR99-trJ6AqJDApv7IyYX2Bwt2HreBkbVEK_MCXth2QOB6emMDNo0eZ5Gq7gbeF5hH-EqL7Mfg6qpT7dUjhn6p6u-frNIL_jplIpsPlt_2oSdIlpxLi7UlruuHt4PseiUJD_1uCjhZoN_mU3BIuybeZoU7F7x0vC59lhibtMovxOkmj7erYOwTrhjGS0JguC6zsHSFamr-ZpB-bIFSESDpe-izf_ZMv_4YrOSqety0]--></g></svg>